<svg xmlns="http://www.w3.org/2000/svg" version="1.1" xmlns:xlink="http://www.w3.org/1999/xlink" xmlns:svgjs="http://svgjs.dev/svgjs" width="1446" height="560" preserveAspectRatio="none" viewBox="0 0 1446 560"><g mask="url(&quot;#SvgjsMask1174&quot;)" fill="none"><rect width="1446" height="560" x="0" y="0" fill="url(&quot;#SvgjsLinearGradient1175&quot;)"></rect><path d="M-88.3 363.74L-88.3 363.74" stroke="#132e65" stroke-width="1.5"></path><path d="M-88.3 363.74L-100.41 541.48" stroke="#132e65" stroke-width="1.5"></path><path d="M-88.3 363.74L99.18 360.09" stroke="#132e65" stroke-width="1.5"></path><path d="M-88.3 363.74L47.1 495.34" stroke="#132e65" stroke-width="1.5"></path><path d="M-88.3 363.74L233.53 371.9" stroke="#132e65" stroke-width="1.5"></path><path d="M-88.3 363.74L-93.3 688.86" stroke="#132e65" stroke-width="1.5"></path><path d="M-100.41 541.48L-100.41 541.48" stroke="#132e65" stroke-width="1.5"></path><path d="M-100.41 541.48L-93.3 688.86" stroke="#132e65" stroke-width="1.5"></path><path d="M-100.41 541.48L47.1 495.34" stroke="#132e65" stroke-width="1.5"></path><path d="M-100.41 541.48L61.67 661.94" stroke="#132e65" stroke-width="1.5"></path><path d="M-100.41 541.48L99.18 360.09" stroke="#132e65" stroke-width="1.5"></path><path d="M-93.3 688.86L-93.3 688.86" stroke="#132e65" stroke-width="1.5"></path><path d="M-93.3 688.86L61.67 661.94" stroke="#132e65" stroke-width="1.5"></path><path d="M-93.3 688.86L47.1 495.34" stroke="#132e65" stroke-width="1.5"></path><path d="M99.18 360.09L99.18 360.09" stroke="#132e65" stroke-width="1.5"></path><path d="M99.18 360.09L233.53 371.9" stroke="#132e65" stroke-width="1.5"></path><path d="M99.18 360.09L47.1 495.34" stroke="#132e65" stroke-width="1.5"></path><path d="M47.1 495.34L47.1 495.34" stroke="#132e65" stroke-width="1.5"></path><path d="M61.67 661.94L61.67 661.94" stroke="#132e65" stroke-width="1.5"></path><path d="M61.67 661.94L47.1 495.34" stroke="#132e65" stroke-width="1.5"></path><path d="M61.67 661.94L255.85 645.6" stroke="#132e65" stroke-width="1.5"></path><path d="M233.53 371.9L233.53 371.9" stroke="#132e65" stroke-width="1.5"></path><path d="M233.53 371.9L239.28 490.22" stroke="#132e65" stroke-width="1.5"></path><path d="M239.28 490.22L239.28 490.22" stroke="#132e65" stroke-width="1.5"></path><path d="M239.28 490.22L348.16 504.54" stroke="#132e65" stroke-width="1.5"></path><path d="M255.85 645.6L255.85 645.6" stroke="#132e65" stroke-width="1.5"></path><path d="M255.85 645.6L381.1 694.27" stroke="#132e65" stroke-width="1.5"></path><path d="M374.11 373.21L374.11 373.21" stroke="#132e65" stroke-width="1.5"></path><path d="M374.11 373.21L348.16 504.54" stroke="#132e65" stroke-width="1.5"></path><path d="M374.11 373.21L233.53 371.9" stroke="#132e65" stroke-width="1.5"></path><path d="M374.11 373.21L527.4 370.27" stroke="#132e65" stroke-width="1.5"></path><path d="M374.11 373.21L239.28 490.22" stroke="#132e65" stroke-width="1.5"></path><path d="M348.16 504.54L348.16 504.54" stroke="#132e65" stroke-width="1.5"></path><path d="M348.16 504.54L255.85 645.6" stroke="#132e65" stroke-width="1.5"></path><path d="M348.16 504.54L233.53 371.9" stroke="#132e65" stroke-width="1.5"></path><path d="M381.1 694.27L381.1 694.27" stroke="#132e65" stroke-width="1.5"></path><path d="M381.1 694.27L500.09 699.93" stroke="#132e65" stroke-width="1.5"></path><path d="M381.1 694.27L348.16 504.54" stroke="#132e65" stroke-width="1.5"></path><path d="M381.1 694.27L555.48 560.5" stroke="#132e65" stroke-width="1.5"></path><path d="M381.1 694.27L239.28 490.22" stroke="#132e65" stroke-width="1.5"></path><path d="M381.1 694.27L674.31 666.3" stroke="#132e65" stroke-width="1.5"></path><path d="M527.4 370.27L527.4 370.27" stroke="#132e65" stroke-width="1.5"></path><path d="M527.4 370.27L651.38 340.64" stroke="#132e65" stroke-width="1.5"></path><path d="M527.4 370.27L555.48 560.5" stroke="#132e65" stroke-width="1.5"></path><path d="M527.4 370.27L681.56 249.73" stroke="#132e65" stroke-width="1.5"></path><path d="M527.4 370.27L684.76 509.32" stroke="#132e65" stroke-width="1.5"></path><path d="M555.48 560.5L555.48 560.5" stroke="#132e65" stroke-width="1.5"></path><path d="M555.48 560.5L684.76 509.32" stroke="#132e65" stroke-width="1.5"></path><path d="M555.48 560.5L500.09 699.93" stroke="#132e65" stroke-width="1.5"></path><path d="M555.48 560.5L674.31 666.3" stroke="#132e65" stroke-width="1.5"></path><path d="M555.48 560.5L348.16 504.54" stroke="#132e65" stroke-width="1.5"></path><path d="M500.09 699.93L500.09 699.93" stroke="#132e65" stroke-width="1.5"></path><path d="M500.09 699.93L674.31 666.3" stroke="#132e65" stroke-width="1.5"></path><path d="M500.09 699.93L348.16 504.54" stroke="#132e65" stroke-width="1.5"></path><path d="M681.56 249.73L681.56 249.73" stroke="#132e65" stroke-width="1.5"></path><path d="M681.56 249.73L651.38 340.64" stroke="#132e65" stroke-width="1.5"></path><path d="M681.56 249.73L839.27 214.2" stroke="#132e65" stroke-width="1.5"></path><path d="M681.56 249.73L824.12 352.37" stroke="#132e65" stroke-width="1.5"></path><path d="M681.56 249.73L684.76 509.32" stroke="#132e65" stroke-width="1.5"></path><path d="M651.38 340.64L651.38 340.64" stroke="#132e65" stroke-width="1.5"></path><path d="M651.38 340.64L684.76 509.32" stroke="#132e65" stroke-width="1.5"></path><path d="M684.76 509.32L684.76 509.32" stroke="#132e65" stroke-width="1.5"></path><path d="M684.76 509.32L674.31 666.3" stroke="#132e65" stroke-width="1.5"></path><path d="M684.76 509.32L842.92 534.66" stroke="#132e65" stroke-width="1.5"></path><path d="M684.76 509.32L824.12 352.37" stroke="#132e65" stroke-width="1.5"></path><path d="M674.31 666.3L674.31 666.3" stroke="#132e65" stroke-width="1.5"></path><path d="M674.31 666.3L815.6 707.2" stroke="#132e65" stroke-width="1.5"></path><path d="M839.27 214.2L839.27 214.2" stroke="#132e65" stroke-width="1.5"></path><path d="M839.27 214.2L824.12 352.37" stroke="#132e65" stroke-width="1.5"></path><path d="M839.27 214.2L987.78 198.36" stroke="#132e65" stroke-width="1.5"></path><path d="M839.27 214.2L973.22 340.37" stroke="#132e65" stroke-width="1.5"></path><path d="M839.27 214.2L995.73 88.02" stroke="#132e65" stroke-width="1.5"></path><path d="M824.12 352.37L824.12 352.37" stroke="#132e65" stroke-width="1.5"></path><path d="M824.12 352.37L973.22 340.37" stroke="#132e65" stroke-width="1.5"></path><path d="M824.12 352.37L651.38 340.64" stroke="#132e65" stroke-width="1.5"></path><path d="M824.12 352.37L842.92 534.66" stroke="#132e65" stroke-width="1.5"></path><path d="M842.92 534.66L842.92 534.66" stroke="#132e65" stroke-width="1.5"></path><path d="M842.92 534.66L967.26 488.5" stroke="#132e65" stroke-width="1.5"></path><path d="M815.6 707.2L815.6 707.2" stroke="#132e65" stroke-width="1.5"></path><path d="M815.6 707.2L943.14 671.46" stroke="#132e65" stroke-width="1.5"></path><path d="M815.6 707.2L842.92 534.66" stroke="#132e65" stroke-width="1.5"></path><path d="M944.23 -110.84L944.23 -110.84" stroke="#132e65" stroke-width="1.5"></path><path d="M944.23 -110.84L1125 -50.56" stroke="#132e65" stroke-width="1.5"></path><path d="M944.23 -110.84L995.73 88.02" stroke="#132e65" stroke-width="1.5"></path><path d="M944.23 -110.84L1132.19 62.9" stroke="#132e65" stroke-width="1.5"></path><path d="M944.23 -110.84L987.78 198.36" stroke="#132e65" stroke-width="1.5"></path><path d="M944.23 -110.84L839.27 214.2" stroke="#132e65" stroke-width="1.5"></path><path d="M944.23 -110.84L1108.43 207.17" stroke="#132e65" stroke-width="1.5"></path><path d="M995.73 88.02L995.73 88.02" stroke="#132e65" stroke-width="1.5"></path><path d="M995.73 88.02L987.78 198.36" stroke="#132e65" stroke-width="1.5"></path><path d="M995.73 88.02L1132.19 62.9" stroke="#132e65" stroke-width="1.5"></path><path d="M987.78 198.36L987.78 198.36" stroke="#132e65" stroke-width="1.5"></path><path d="M987.78 198.36L1108.43 207.17" stroke="#132e65" stroke-width="1.5"></path><path d="M987.78 198.36L973.22 340.37" stroke="#132e65" stroke-width="1.5"></path><path d="M987.78 198.36L1091.03 340.76" stroke="#132e65" stroke-width="1.5"></path><path d="M973.22 340.37L973.22 340.37" stroke="#132e65" stroke-width="1.5"></path><path d="M973.22 340.37L1091.03 340.76" stroke="#132e65" stroke-width="1.5"></path><path d="M973.22 340.37L967.26 488.5" stroke="#132e65" stroke-width="1.5"></path><path d="M967.26 488.5L967.26 488.5" stroke="#132e65" stroke-width="1.5"></path><path d="M967.26 488.5L1113.66 510.59" stroke="#132e65" stroke-width="1.5"></path><path d="M967.26 488.5L943.14 671.46" stroke="#132e65" stroke-width="1.5"></path><path d="M967.26 488.5L1091.03 340.76" stroke="#132e65" stroke-width="1.5"></path><path d="M943.14 671.46L943.14 671.46" stroke="#132e65" stroke-width="1.5"></path><path d="M943.14 671.46L842.92 534.66" stroke="#132e65" stroke-width="1.5"></path><path d="M943.14 671.46L1115.8 702.07" stroke="#132e65" stroke-width="1.5"></path><path d="M1125 -50.56L1125 -50.56" stroke="#132e65" stroke-width="1.5"></path><path d="M1125 -50.56L1132.19 62.9" stroke="#132e65" stroke-width="1.5"></path><path d="M1125 -50.56L1302.17 -92.85" stroke="#132e65" stroke-width="1.5"></path><path d="M1125 -50.56L995.73 88.02" stroke="#132e65" stroke-width="1.5"></path><path d="M1125 -50.56L1283.94 89.18" stroke="#132e65" stroke-width="1.5"></path><path d="M1132.19 62.9L1132.19 62.9" stroke="#132e65" stroke-width="1.5"></path><path d="M1108.43 207.17L1108.43 207.17" stroke="#132e65" stroke-width="1.5"></path><path d="M1108.43 207.17L1091.03 340.76" stroke="#132e65" stroke-width="1.5"></path><path d="M1108.43 207.17L1132.19 62.9" stroke="#132e65" stroke-width="1.5"></path><path d="M1108.43 207.17L1256.85 256.4" stroke="#132e65" stroke-width="1.5"></path><path d="M1108.43 207.17L995.73 88.02" stroke="#132e65" stroke-width="1.5"></path><path d="M1108.43 207.17L973.22 340.37" stroke="#132e65" stroke-width="1.5"></path><path d="M1091.03 340.76L1091.03 340.76" stroke="#132e65" stroke-width="1.5"></path><path d="M1091.03 340.76L1238.32 356.77" stroke="#132e65" stroke-width="1.5"></path><path d="M1091.03 340.76L1113.66 510.59" stroke="#132e65" stroke-width="1.5"></path><path d="M1113.66 510.59L1113.66 510.59" stroke="#132e65" stroke-width="1.5"></path><path d="M1113.66 510.59L1277.02 531.13" stroke="#132e65" stroke-width="1.5"></path><path d="M1115.8 702.07L1115.8 702.07" stroke="#132e65" stroke-width="1.5"></path><path d="M1115.8 702.07L1286.81 645.62" stroke="#132e65" stroke-width="1.5"></path><path d="M1115.8 702.07L1113.66 510.59" stroke="#132e65" stroke-width="1.5"></path><path d="M1115.8 702.07L1277.02 531.13" stroke="#132e65" stroke-width="1.5"></path><path d="M1115.8 702.07L967.26 488.5" stroke="#132e65" stroke-width="1.5"></path><path d="M1302.17 -92.85L1302.17 -92.85" stroke="#132e65" stroke-width="1.5"></path><path d="M1302.17 -92.85L1415.24 -44.79" stroke="#132e65" stroke-width="1.5"></path><path d="M1302.17 -92.85L1283.94 89.18" stroke="#132e65" stroke-width="1.5"></path><path d="M1302.17 -92.85L1456.72 43.4" stroke="#132e65" stroke-width="1.5"></path><path d="M1302.17 -92.85L1132.19 62.9" stroke="#132e65" stroke-width="1.5"></path><path d="M1302.17 -92.85L1575.6 -49.98" stroke="#132e65" stroke-width="1.5"></path><path d="M1283.94 89.18L1283.94 89.18" stroke="#132e65" stroke-width="1.5"></path><path d="M1283.94 89.18L1132.19 62.9" stroke="#132e65" stroke-width="1.5"></path><path d="M1283.94 89.18L1256.85 256.4" stroke="#132e65" stroke-width="1.5"></path><path d="M1256.85 256.4L1256.85 256.4" stroke="#132e65" stroke-width="1.5"></path><path d="M1256.85 256.4L1238.32 356.77" stroke="#132e65" stroke-width="1.5"></path><path d="M1256.85 256.4L1091.03 340.76" stroke="#132e65" stroke-width="1.5"></path><path d="M1238.32 356.77L1238.32 356.77" stroke="#132e65" stroke-width="1.5"></path><path d="M1238.32 356.77L1406.73 401.53" stroke="#132e65" stroke-width="1.5"></path><path d="M1238.32 356.77L1277.02 531.13" stroke="#132e65" stroke-width="1.5"></path><path d="M1238.32 356.77L1113.66 510.59" stroke="#132e65" stroke-width="1.5"></path><path d="M1277.02 531.13L1277.02 531.13" stroke="#132e65" stroke-width="1.5"></path><path d="M1277.02 531.13L1286.81 645.62" stroke="#132e65" stroke-width="1.5"></path><path d="M1277.02 531.13L1425.07 510.15" stroke="#132e65" stroke-width="1.5"></path><path d="M1277.02 531.13L1406.73 401.53" stroke="#132e65" stroke-width="1.5"></path><path d="M1286.81 645.62L1286.81 645.62" stroke="#132e65" stroke-width="1.5"></path><path d="M1286.81 645.62L1425.07 510.15" stroke="#132e65" stroke-width="1.5"></path><path d="M1286.81 645.62L1113.66 510.59" stroke="#132e65" stroke-width="1.5"></path><path d="M1286.81 645.62L1554.68 675.12" stroke="#132e65" stroke-width="1.5"></path><path d="M1415.24 -44.79L1415.24 -44.79" stroke="#132e65" stroke-width="1.5"></path><path d="M1415.24 -44.79L1456.72 43.4" stroke="#132e65" stroke-width="1.5"></path><path d="M1415.24 -44.79L1575.6 -49.98" stroke="#132e65" stroke-width="1.5"></path><path d="M1456.72 43.4L1456.72 43.4" stroke="#132e65" stroke-width="1.5"></path><path d="M1456.72 43.4L1573.32 58.66" stroke="#132e65" stroke-width="1.5"></path><path d="M1456.72 43.4L1575.6 -49.98" stroke="#132e65" stroke-width="1.5"></path><path d="M1456.72 43.4L1283.94 89.18" stroke="#132e65" stroke-width="1.5"></path><path d="M1406.73 401.53L1406.73 401.53" stroke="#132e65" stroke-width="1.5"></path><path d="M1406.73 401.53L1425.07 510.15" stroke="#132e65" stroke-width="1.5"></path><path d="M1406.73 401.53L1579.5 340.25" stroke="#132e65" stroke-width="1.5"></path><path d="M1406.73 401.53L1581.63 498.68" stroke="#132e65" stroke-width="1.5"></path><path d="M1406.73 401.53L1256.85 256.4" stroke="#132e65" stroke-width="1.5"></path><path d="M1425.07 510.15L1425.07 510.15" stroke="#132e65" stroke-width="1.5"></path><path d="M1575.6 -49.98L1575.6 -49.98" stroke="#132e65" stroke-width="1.5"></path><path d="M1575.6 -49.98L1573.32 58.66" stroke="#132e65" stroke-width="1.5"></path><path d="M1573.32 58.66L1573.32 58.66" stroke="#132e65" stroke-width="1.5"></path><path d="M1579.5 340.25L1579.5 340.25" stroke="#132e65" stroke-width="1.5"></path><path d="M1579.5 340.25L1581.63 498.68" stroke="#132e65" stroke-width="1.5"></path><path d="M1581.63 498.68L1581.63 498.68" stroke="#132e65" stroke-width="1.5"></path><path d="M1581.63 498.68L1425.07 510.15" stroke="#132e65" stroke-width="1.5"></path><path d="M1554.68 675.12L1554.68 675.12" stroke="#132e65" stroke-width="1.5"></path><path d="M1554.68 675.12L1581.63 498.68" stroke="#132e65" stroke-width="1.5"></path><path d="M1554.68 675.12L1425.07 510.15" stroke="#132e65" stroke-width="1.5"></path><path d="M1554.68 675.12L1406.73 401.53" stroke="#132e65" stroke-width="1.5"></path><circle r="5" cx="-88.3" cy="363.74" fill="#132e65"></circle><circle r="5" cx="-100.41" cy="541.48" fill="#132e65"></circle><circle r="5" cx="-93.3" cy="688.86" fill="#132e65"></circle><circle r="5" cx="99.18" cy="360.09" fill="#132e65"></circle><circle r="5" cx="47.1" cy="495.34" fill="#132e65"></circle><circle r="5" cx="61.67" cy="661.94" fill="#132e65"></circle><circle r="5" cx="233.53" cy="371.9" fill="#132e65"></circle><circle r="5" cx="239.28" cy="490.22" fill="#132e65"></circle><circle r="5" cx="255.85" cy="645.6" fill="#132e65"></circle><circle r="5" cx="374.11" cy="373.21" fill="#132e65"></circle><circle r="5" cx="348.16" cy="504.54" fill="#132e65"></circle><circle r="5" cx="381.1" cy="694.27" fill="#132e65"></circle><circle r="5" cx="527.4" cy="370.27" fill="#132e65"></circle><circle r="5" cx="555.48" cy="560.5" fill="#132e65"></circle><circle r="5" cx="500.09" cy="699.93" fill="#132e65"></circle><circle r="5" cx="681.56" cy="249.73" fill="#132e65"></circle><circle r="5" cx="651.38" cy="340.64" fill="#132e65"></circle><circle r="5" cx="684.76" cy="509.32" fill="#132e65"></circle><circle r="5" cx="674.31" cy="666.3" fill="#132e65"></circle><circle r="5" cx="839.27" cy="214.2" fill="#132e65"></circle><circle r="5" cx="824.12" cy="352.37" fill="#132e65"></circle><circle r="5" cx="842.92" cy="534.66" fill="#132e65"></circle><circle r="5" cx="815.6" cy="707.2" fill="#132e65"></circle><circle r="5" cx="944.23" cy="-110.84" fill="#132e65"></circle><circle r="5" cx="995.73" cy="88.02" fill="#132e65"></circle><circle r="5" cx="987.78" cy="198.36" fill="#132e65"></circle><circle r="5" cx="973.22" cy="340.37" fill="#132e65"></circle><circle r="5" cx="967.26" cy="488.5" fill="#132e65"></circle><circle r="5" cx="943.14" cy="671.46" fill="#132e65"></circle><circle r="5" cx="1125" cy="-50.56" fill="#132e65"></circle><circle r="5" cx="1132.19" cy="62.9" fill="#132e65"></circle><circle r="5" cx="1108.43" cy="207.17" fill="#132e65"></circle><circle r="5" cx="1091.03" cy="340.76" fill="#132e65"></circle><circle r="5" cx="1113.66" cy="510.59" fill="#132e65"></circle><circle r="5" cx="1115.8" cy="702.07" fill="#132e65"></circle><circle r="5" cx="1302.17" cy="-92.85" fill="#132e65"></circle><circle r="5" cx="1283.94" cy="89.18" fill="#132e65"></circle><circle r="5" cx="1256.85" cy="256.4" fill="#132e65"></circle><circle r="5" cx="1238.32" cy="356.77" fill="#132e65"></circle><circle r="5" cx="1277.02" cy="531.13" fill="#132e65"></circle><circle r="5" cx="1286.81" cy="645.62" fill="#132e65"></circle><circle r="5" cx="1415.24" cy="-44.79" fill="#132e65"></circle><circle r="5" cx="1456.72" cy="43.4" fill="#132e65"></circle><circle r="5" cx="1406.73" cy="401.53" fill="#132e65"></circle><circle r="5" cx="1425.07" cy="510.15" fill="#132e65"></circle><circle r="5" cx="1575.6" cy="-49.98" fill="#132e65"></circle><circle r="5" cx="1573.32" cy="58.66" fill="#132e65"></circle><circle r="5" cx="1579.5" cy="340.25" fill="#132e65"></circle><circle r="5" cx="1581.63" cy="498.68" fill="#132e65"></circle><circle r="5" cx="1554.68" cy="675.12" fill="#132e65"></circle><path d="M392.71 517.26L392.71 517.26" stroke="hsl(228.5, 77.2%, 51.5%)" stroke-width="1.5"></path><path d="M392.71 517.26L540.92 554.19" stroke="hsl(228.5, 77.2%, 51.5%)" stroke-width="1.5"></path><path d="M392.71 517.26L379.69 671.43" stroke="hsl(228.5, 77.2%, 51.5%)" stroke-width="1.5"></path><path d="M392.71 517.26L212.45 523" stroke="hsl(228.5, 77.2%, 51.5%)" stroke-width="1.5"></path><path d="M392.71 517.26L260.01 681.23" stroke="hsl(228.5, 77.2%, 51.5%)" stroke-width="1.5"></path><path d="M392.71 517.26L548.14 703.62" stroke="hsl(228.5, 77.2%, 51.5%)" stroke-width="1.5"></path><path d="M1296.99 107.83L1296.99 107.83" stroke="hsl(228.5, 77.2%, 51.5%)" stroke-width="1.5"></path><path d="M1296.99 107.83L1405.16 54.69" stroke="hsl(228.5, 77.2%, 51.5%)" stroke-width="1.5"></path><path d="M1296.99 107.83L1309.67 233.14" stroke="hsl(228.5, 77.2%, 51.5%)" stroke-width="1.5"></path><path d="M1296.99 107.83L1270.68 -44.73" stroke="hsl(228.5, 77.2%, 51.5%)" stroke-width="1.5"></path><path d="M1296.99 107.83L1460.49 200.1" stroke="hsl(228.5, 77.2%, 51.5%)" stroke-width="1.5"></path><path d="M1296.99 107.83L1422.97 -63.18" stroke="hsl(228.5, 77.2%, 51.5%)" stroke-width="1.5"></path><path d="M1296.99 107.83L1090.1 222.57" stroke="hsl(228.5, 77.2%, 51.5%)" stroke-width="1.5"></path><path d="M1277.24 645.84L1277.24 645.84" stroke="hsl(228.5, 77.2%, 51.5%)" stroke-width="1.5"></path><path d="M1277.24 645.84L1271.52 556.65" stroke="hsl(228.5, 77.2%, 51.5%)" stroke-width="1.5"></path><path d="M1277.24 645.84L1148.75 532.51" stroke="hsl(228.5, 77.2%, 51.5%)" stroke-width="1.5"></path><path d="M1422.97 -63.18L1422.97 -63.18" stroke="hsl(228.5, 77.2%, 51.5%)" stroke-width="1.5"></path><path d="M1422.97 -63.18L1405.16 54.69" stroke="hsl(228.5, 77.2%, 51.5%)" stroke-width="1.5"></path><path d="M1422.97 -63.18L1566.44 -60.09" stroke="hsl(228.5, 77.2%, 51.5%)" stroke-width="1.5"></path><path d="M1405.16 54.69L1405.16 54.69" stroke="hsl(228.5, 77.2%, 51.5%)" stroke-width="1.5"></path><path d="M1557.01 532.52L1557.01 532.52" stroke="hsl(228.5, 77.2%, 51.5%)" stroke-width="1.5"></path><path d="M1557.01 532.52L1462.48 657.37" stroke="hsl(228.5, 77.2%, 51.5%)" stroke-width="1.5"></path><path d="M1557.01 532.52L1390.05 505.84" stroke="hsl(228.5, 77.2%, 51.5%)" stroke-width="1.5"></path><path d="M1557.01 532.52L1539.87 358.9" stroke="hsl(228.5, 77.2%, 51.5%)" stroke-width="1.5"></path><path d="M-40.45 544.07L-40.45 544.07" stroke="hsl(228.5, 77.2%, 51.5%)" stroke-width="1.5"></path><path d="M-40.45 544.07L41.17 544.59" stroke="hsl(228.5, 77.2%, 51.5%)" stroke-width="1.5"></path><path d="M-40.45 544.07L-94.26 648.02" stroke="hsl(228.5, 77.2%, 51.5%)" stroke-width="1.5"></path><path d="M-40.45 544.07L76.86 667.42" stroke="hsl(228.5, 77.2%, 51.5%)" stroke-width="1.5"></path><path d="M-94.26 648.02L-94.26 648.02" stroke="hsl(228.5, 77.2%, 51.5%)" stroke-width="1.5"></path><path d="M-94.26 648.02L41.17 544.59" stroke="hsl(228.5, 77.2%, 51.5%)" stroke-width="1.5"></path><path d="M-94.26 648.02L76.86 667.42" stroke="hsl(228.5, 77.2%, 51.5%)" stroke-width="1.5"></path><path d="M-94.26 648.02L212.45 523" stroke="hsl(228.5, 77.2%, 51.5%)" stroke-width="1.5"></path><path d="M-94.26 648.02L260.01 681.23" stroke="hsl(228.5, 77.2%, 51.5%)" stroke-width="1.5"></path><path d="M-94.26 648.02L379.69 671.43" stroke="hsl(228.5, 77.2%, 51.5%)" stroke-width="1.5"></path><path d="M41.17 544.59L41.17 544.59" stroke="hsl(228.5, 77.2%, 51.5%)" stroke-width="1.5"></path><path d="M41.17 544.59L76.86 667.42" stroke="hsl(228.5, 77.2%, 51.5%)" stroke-width="1.5"></path><path d="M41.17 544.59L212.45 523" stroke="hsl(228.5, 77.2%, 51.5%)" stroke-width="1.5"></path><path d="M76.86 667.42L76.86 667.42" stroke="hsl(228.5, 77.2%, 51.5%)" stroke-width="1.5"></path><path d="M76.86 667.42L260.01 681.23" stroke="hsl(228.5, 77.2%, 51.5%)" stroke-width="1.5"></path><path d="M76.86 667.42L212.45 523" stroke="hsl(228.5, 77.2%, 51.5%)" stroke-width="1.5"></path><path d="M212.45 523L212.45 523" stroke="hsl(228.5, 77.2%, 51.5%)" stroke-width="1.5"></path><path d="M212.45 523L260.01 681.23" stroke="hsl(228.5, 77.2%, 51.5%)" stroke-width="1.5"></path><path d="M260.01 681.23L260.01 681.23" stroke="hsl(228.5, 77.2%, 51.5%)" stroke-width="1.5"></path><path d="M260.01 681.23L379.69 671.43" stroke="hsl(228.5, 77.2%, 51.5%)" stroke-width="1.5"></path><path d="M379.69 671.43L379.69 671.43" stroke="hsl(228.5, 77.2%, 51.5%)" stroke-width="1.5"></path><path d="M540.92 554.19L540.92 554.19" stroke="hsl(228.5, 77.2%, 51.5%)" stroke-width="1.5"></path><path d="M540.92 554.19L548.14 703.62" stroke="hsl(228.5, 77.2%, 51.5%)" stroke-width="1.5"></path><path d="M540.92 554.19L669.82 650.38" stroke="hsl(228.5, 77.2%, 51.5%)" stroke-width="1.5"></path><path d="M540.92 554.19L649.1 390.83" stroke="hsl(228.5, 77.2%, 51.5%)" stroke-width="1.5"></path><path d="M540.92 554.19L379.69 671.43" stroke="hsl(228.5, 77.2%, 51.5%)" stroke-width="1.5"></path><path d="M540.92 554.19L799.59 520.19" stroke="hsl(228.5, 77.2%, 51.5%)" stroke-width="1.5"></path><path d="M548.14 703.62L548.14 703.62" stroke="hsl(228.5, 77.2%, 51.5%)" stroke-width="1.5"></path><path d="M548.14 703.62L669.82 650.38" stroke="hsl(228.5, 77.2%, 51.5%)" stroke-width="1.5"></path><path d="M649.1 390.83L649.1 390.83" stroke="hsl(228.5, 77.2%, 51.5%)" stroke-width="1.5"></path><path d="M649.1 390.83L799.59 520.19" stroke="hsl(228.5, 77.2%, 51.5%)" stroke-width="1.5"></path><path d="M669.82 650.38L669.82 650.38" stroke="hsl(228.5, 77.2%, 51.5%)" stroke-width="1.5"></path><path d="M669.82 650.38L829.52 663.95" stroke="hsl(228.5, 77.2%, 51.5%)" stroke-width="1.5"></path><path d="M669.82 650.38L799.59 520.19" stroke="hsl(228.5, 77.2%, 51.5%)" stroke-width="1.5"></path><path d="M669.82 650.38L649.1 390.83" stroke="hsl(228.5, 77.2%, 51.5%)" stroke-width="1.5"></path><path d="M669.82 650.38L949.84 640.53" stroke="hsl(228.5, 77.2%, 51.5%)" stroke-width="1.5"></path><path d="M854.52 347.69L854.52 347.69" stroke="hsl(228.5, 77.2%, 51.5%)" stroke-width="1.5"></path><path d="M854.52 347.69L1011.63 347.15" stroke="hsl(228.5, 77.2%, 51.5%)" stroke-width="1.5"></path><path d="M854.52 347.69L799.59 520.19" stroke="hsl(228.5, 77.2%, 51.5%)" stroke-width="1.5"></path><path d="M799.59 520.19L799.59 520.19" stroke="hsl(228.5, 77.2%, 51.5%)" stroke-width="1.5"></path><path d="M799.59 520.19L945.67 516.6" stroke="hsl(228.5, 77.2%, 51.5%)" stroke-width="1.5"></path><path d="M799.59 520.19L829.52 663.95" stroke="hsl(228.5, 77.2%, 51.5%)" stroke-width="1.5"></path><path d="M799.59 520.19L949.84 640.53" stroke="hsl(228.5, 77.2%, 51.5%)" stroke-width="1.5"></path><path d="M829.52 663.95L829.52 663.95" stroke="hsl(228.5, 77.2%, 51.5%)" stroke-width="1.5"></path><path d="M829.52 663.95L949.84 640.53" stroke="hsl(228.5, 77.2%, 51.5%)" stroke-width="1.5"></path><path d="M829.52 663.95L945.67 516.6" stroke="hsl(228.5, 77.2%, 51.5%)" stroke-width="1.5"></path><path d="M829.52 663.95L1096.37 658.09" stroke="hsl(228.5, 77.2%, 51.5%)" stroke-width="1.5"></path><path d="M1011.63 347.15L1011.63 347.15" stroke="hsl(228.5, 77.2%, 51.5%)" stroke-width="1.5"></path><path d="M1011.63 347.15L1158.29 350.51" stroke="hsl(228.5, 77.2%, 51.5%)" stroke-width="1.5"></path><path d="M945.67 516.6L945.67 516.6" stroke="hsl(228.5, 77.2%, 51.5%)" stroke-width="1.5"></path><path d="M945.67 516.6L949.84 640.53" stroke="hsl(228.5, 77.2%, 51.5%)" stroke-width="1.5"></path><path d="M945.67 516.6L1011.63 347.15" stroke="hsl(228.5, 77.2%, 51.5%)" stroke-width="1.5"></path><path d="M945.67 516.6L854.52 347.69" stroke="hsl(228.5, 77.2%, 51.5%)" stroke-width="1.5"></path><path d="M945.67 516.6L1148.75 532.51" stroke="hsl(228.5, 77.2%, 51.5%)" stroke-width="1.5"></path><path d="M949.84 640.53L949.84 640.53" stroke="hsl(228.5, 77.2%, 51.5%)" stroke-width="1.5"></path><path d="M949.84 640.53L1096.37 658.09" stroke="hsl(228.5, 77.2%, 51.5%)" stroke-width="1.5"></path><path d="M1090.1 222.57L1090.1 222.57" stroke="hsl(228.5, 77.2%, 51.5%)" stroke-width="1.5"></path><path d="M1090.1 222.57L1158.29 350.51" stroke="hsl(228.5, 77.2%, 51.5%)" stroke-width="1.5"></path><path d="M1090.1 222.57L1011.63 347.15" stroke="hsl(228.5, 77.2%, 51.5%)" stroke-width="1.5"></path><path d="M1090.1 222.57L1309.67 233.14" stroke="hsl(228.5, 77.2%, 51.5%)" stroke-width="1.5"></path><path d="M1158.29 350.51L1158.29 350.51" stroke="hsl(228.5, 77.2%, 51.5%)" stroke-width="1.5"></path><path d="M1158.29 350.51L1248.55 409.76" stroke="hsl(228.5, 77.2%, 51.5%)" stroke-width="1.5"></path><path d="M1158.29 350.51L1148.75 532.51" stroke="hsl(228.5, 77.2%, 51.5%)" stroke-width="1.5"></path><path d="M1148.75 532.51L1148.75 532.51" stroke="hsl(228.5, 77.2%, 51.5%)" stroke-width="1.5"></path><path d="M1148.75 532.51L1271.52 556.65" stroke="hsl(228.5, 77.2%, 51.5%)" stroke-width="1.5"></path><path d="M1148.75 532.51L1096.37 658.09" stroke="hsl(228.5, 77.2%, 51.5%)" stroke-width="1.5"></path><path d="M1148.75 532.51L1248.55 409.76" stroke="hsl(228.5, 77.2%, 51.5%)" stroke-width="1.5"></path><path d="M1096.37 658.09L1096.37 658.09" stroke="hsl(228.5, 77.2%, 51.5%)" stroke-width="1.5"></path><path d="M1096.37 658.09L1277.24 645.84" stroke="hsl(228.5, 77.2%, 51.5%)" stroke-width="1.5"></path><path d="M1096.37 658.09L1271.52 556.65" stroke="hsl(228.5, 77.2%, 51.5%)" stroke-width="1.5"></path><path d="M1096.37 658.09L945.67 516.6" stroke="hsl(228.5, 77.2%, 51.5%)" stroke-width="1.5"></path><path d="M1270.68 -44.73L1270.68 -44.73" stroke="hsl(228.5, 77.2%, 51.5%)" stroke-width="1.5"></path><path d="M1270.68 -44.73L1422.97 -63.18" stroke="hsl(228.5, 77.2%, 51.5%)" stroke-width="1.5"></path><path d="M1270.68 -44.73L1405.16 54.69" stroke="hsl(228.5, 77.2%, 51.5%)" stroke-width="1.5"></path><path d="M1270.68 -44.73L1309.67 233.14" stroke="hsl(228.5, 77.2%, 51.5%)" stroke-width="1.5"></path><path d="M1309.67 233.14L1309.67 233.14" stroke="hsl(228.5, 77.2%, 51.5%)" stroke-width="1.5"></path><path d="M1248.55 409.76L1248.55 409.76" stroke="hsl(228.5, 77.2%, 51.5%)" stroke-width="1.5"></path><path d="M1248.55 409.76L1271.52 556.65" stroke="hsl(228.5, 77.2%, 51.5%)" stroke-width="1.5"></path><path d="M1248.55 409.76L1397.87 384.54" stroke="hsl(228.5, 77.2%, 51.5%)" stroke-width="1.5"></path><path d="M1248.55 409.76L1390.05 505.84" stroke="hsl(228.5, 77.2%, 51.5%)" stroke-width="1.5"></path><path d="M1271.52 556.65L1271.52 556.65" stroke="hsl(228.5, 77.2%, 51.5%)" stroke-width="1.5"></path><path d="M1271.52 556.65L1390.05 505.84" stroke="hsl(228.5, 77.2%, 51.5%)" stroke-width="1.5"></path><path d="M1460.49 200.1L1460.49 200.1" stroke="hsl(228.5, 77.2%, 51.5%)" stroke-width="1.5"></path><path d="M1460.49 200.1L1596.76 238.35" stroke="hsl(228.5, 77.2%, 51.5%)" stroke-width="1.5"></path><path d="M1460.49 200.1L1309.67 233.14" stroke="hsl(228.5, 77.2%, 51.5%)" stroke-width="1.5"></path><path d="M1460.49 200.1L1405.16 54.69" stroke="hsl(228.5, 77.2%, 51.5%)" stroke-width="1.5"></path><path d="M1460.49 200.1L1577.8 88" stroke="hsl(228.5, 77.2%, 51.5%)" stroke-width="1.5"></path><path d="M1397.87 384.54L1397.87 384.54" stroke="hsl(228.5, 77.2%, 51.5%)" stroke-width="1.5"></path><path d="M1397.87 384.54L1390.05 505.84" stroke="hsl(228.5, 77.2%, 51.5%)" stroke-width="1.5"></path><path d="M1397.87 384.54L1539.87 358.9" stroke="hsl(228.5, 77.2%, 51.5%)" stroke-width="1.5"></path><path d="M1397.87 384.54L1309.67 233.14" stroke="hsl(228.5, 77.2%, 51.5%)" stroke-width="1.5"></path><path d="M1397.87 384.54L1460.49 200.1" stroke="hsl(228.5, 77.2%, 51.5%)" stroke-width="1.5"></path><path d="M1390.05 505.84L1390.05 505.84" stroke="hsl(228.5, 77.2%, 51.5%)" stroke-width="1.5"></path><path d="M1390.05 505.84L1462.48 657.37" stroke="hsl(228.5, 77.2%, 51.5%)" stroke-width="1.5"></path><path d="M1462.48 657.37L1462.48 657.37" stroke="hsl(228.5, 77.2%, 51.5%)" stroke-width="1.5"></path><path d="M1462.48 657.37L1277.24 645.84" stroke="hsl(228.5, 77.2%, 51.5%)" stroke-width="1.5"></path><path d="M1462.48 657.37L1271.52 556.65" stroke="hsl(228.5, 77.2%, 51.5%)" stroke-width="1.5"></path><path d="M1462.48 657.37L1397.87 384.54" stroke="hsl(228.5, 77.2%, 51.5%)" stroke-width="1.5"></path><path d="M1566.44 -60.09L1566.44 -60.09" stroke="hsl(228.5, 77.2%, 51.5%)" stroke-width="1.5"></path><path d="M1566.44 -60.09L1577.8 88" stroke="hsl(228.5, 77.2%, 51.5%)" stroke-width="1.5"></path><path d="M1566.44 -60.09L1405.16 54.69" stroke="hsl(228.5, 77.2%, 51.5%)" stroke-width="1.5"></path><path d="M1566.44 -60.09L1460.49 200.1" stroke="hsl(228.5, 77.2%, 51.5%)" stroke-width="1.5"></path><path d="M1566.44 -60.09L1270.68 -44.73" stroke="hsl(228.5, 77.2%, 51.5%)" stroke-width="1.5"></path><path d="M1566.44 -60.09L1596.76 238.35" stroke="hsl(228.5, 77.2%, 51.5%)" stroke-width="1.5"></path><path d="M1577.8 88L1577.8 88" stroke="hsl(228.5, 77.2%, 51.5%)" stroke-width="1.5"></path><path d="M1596.76 238.35L1596.76 238.35" stroke="hsl(228.5, 77.2%, 51.5%)" stroke-width="1.5"></path><path d="M1596.76 238.35L1539.87 358.9" stroke="hsl(228.5, 77.2%, 51.5%)" stroke-width="1.5"></path><path d="M1596.76 238.35L1577.8 88" stroke="hsl(228.5, 77.2%, 51.5%)" stroke-width="1.5"></path><path d="M1539.87 358.9L1539.87 358.9" stroke="hsl(228.5, 77.2%, 51.5%)" stroke-width="1.5"></path><path d="M1539.87 358.9L1460.49 200.1" stroke="hsl(228.5, 77.2%, 51.5%)" stroke-width="1.5"></path><path d="M1539.87 358.9L1390.05 505.84" stroke="hsl(228.5, 77.2%, 51.5%)" stroke-width="1.5"></path><circle r="25" cx="392.71" cy="517.26" fill="url(&quot;#SvgjsRadialGradient1176&quot;)"></circle><circle r="25" cx="1296.99" cy="107.83" fill="url(&quot;#SvgjsRadialGradient1176&quot;)"></circle><circle r="25" cx="1277.24" cy="645.84" fill="url(&quot;#SvgjsRadialGradient1176&quot;)"></circle><circle r="25" cx="1422.97" cy="-63.18" fill="url(&quot;#SvgjsRadialGradient1176&quot;)"></circle><circle r="25" cx="1405.16" cy="54.69" fill="url(&quot;#SvgjsRadialGradient1176&quot;)"></circle><circle r="25" cx="1557.01" cy="532.52" fill="url(&quot;#SvgjsRadialGradient1176&quot;)"></circle><circle r="5" cx="-40.45" cy="544.07" fill="#8b9ad9"></circle><circle r="5" cx="-94.26" cy="648.02" fill="#8b9ad9"></circle><circle r="5" cx="41.17" cy="544.59" fill="#8b9ad9"></circle><circle r="5" cx="76.86" cy="667.42" fill="#8b9ad9"></circle><circle r="5" cx="212.45" cy="523" fill="#8b9ad9"></circle><circle r="5" cx="260.01" cy="681.23" fill="#8b9ad9"></circle><circle r="5" cx="379.69" cy="671.43" fill="#8b9ad9"></circle><circle r="5" cx="540.92" cy="554.19" fill="#8b9ad9"></circle><circle r="5" cx="548.14" cy="703.62" fill="#8b9ad9"></circle><circle r="5" cx="649.1" cy="390.83" fill="#8b9ad9"></circle><circle r="5" cx="669.82" cy="650.38" fill="#8b9ad9"></circle><circle r="5" cx="854.52" cy="347.69" fill="#8b9ad9"></circle><circle r="5" cx="799.59" cy="520.19" fill="#8b9ad9"></circle><circle r="5" cx="829.52" cy="663.95" fill="#8b9ad9"></circle><circle r="5" cx="1011.63" cy="347.15" fill="#8b9ad9"></circle><circle r="5" cx="945.67" cy="516.6" fill="#8b9ad9"></circle><circle r="5" cx="949.84" cy="640.53" fill="#8b9ad9"></circle><circle r="5" cx="1090.1" cy="222.57" fill="#8b9ad9"></circle><circle r="5" cx="1158.29" cy="350.51" fill="#8b9ad9"></circle><circle r="5" cx="1148.75" cy="532.51" fill="#8b9ad9"></circle><circle r="5" cx="1096.37" cy="658.09" fill="#8b9ad9"></circle><circle r="5" cx="1270.68" cy="-44.73" fill="#8b9ad9"></circle><circle r="5" cx="1309.67" cy="233.14" fill="#8b9ad9"></circle><circle r="5" cx="1248.55" cy="409.76" fill="#8b9ad9"></circle><circle r="5" cx="1271.52" cy="556.65" fill="#8b9ad9"></circle><circle r="5" cx="1460.49" cy="200.1" fill="#8b9ad9"></circle><circle r="5" cx="1397.87" cy="384.54" fill="#8b9ad9"></circle><circle r="5" cx="1390.05" cy="505.84" fill="#8b9ad9"></circle><circle r="5" cx="1462.48" cy="657.37" fill="#8b9ad9"></circle><circle r="5" cx="1566.44" cy="-60.09" fill="#8b9ad9"></circle><circle r="5" cx="1577.8" cy="88" fill="#8b9ad9"></circle><circle r="5" cx="1596.76" cy="238.35" fill="#8b9ad9"></circle><circle r="5" cx="1539.87" cy="358.9" fill="#8b9ad9"></circle></g><defs><mask id="SvgjsMask1174"><rect width="1446" height="560" fill="#ffffff"></rect></mask><linearGradient x1="15.32%" y1="-39.55%" x2="84.68%" y2="139.55%" gradientUnits="userSpaceOnUse" id="SvgjsLinearGradient1175"><stop stop-color="#0e2a47" offset="0"></stop><stop stop-color="rgba(81, 110, 149, 1)" offset="1"></stop></linearGradient><radialGradient id="SvgjsRadialGradient1176"><stop stop-color="#ffffff" offset="0.1"></stop><stop stop-color="#1735b3" offset="0.2"></stop><stop stop-color="rgba(23, 53, 179, 0)" offset="1"></stop></radialGradient></defs></svg>